<?xml version="1.0" standalone="no"?>
<!DOCTYPE svg PUBLIC "-//W3C//DTD SVG 20010904//EN"
 "https://www.w3.org/TR/2001/REC-SVG-20010904/DTD/svg10.dtd">
<svg version="1.0" xmlns="https://www.w3.org/2000/svg"
 width="700.000000pt" height="700.000000pt" viewBox="0 0 700.000000 700.000000"
 preserveAspectRatio="xMidYMid meet">
<metadata>
Created by potrace 1.14, written by Peter Selinger 2001-2017
</metadata>
<g transform="translate(0.000000,700.000000) scale(0.100000,-0.100000)"
fill="#000000" stroke="none">
<path d="M4389 6846 c-2 -2 -23 -6 -47 -10 -142 -19 -213 -84 -215 -195 -2
-141 109 -222 260 -190 80 16 250 14 362 -6 182 -31 401 -123 556 -231 404
-282 673 -675 721 -1055 12 -90 7 -230 -10 -302 -20 -85 -20 -128 -1 -174 41
-97 163 -144 258 -99 74 36 115 109 132 241 4 28 9 61 11 75 7 39 6 218 -1
285 -40 378 -256 784 -586 1100 -262 251 -522 407 -834 501 -80 24 -89 27
-155 38 -19 3 -48 9 -65 12 -34 7 -379 16 -386 10z"/>
<path d="M1566 6184 c-145 -23 -286 -89 -371 -171 -185 -179 -360 -469 -473
-783 -55 -153 -109 -378 -127 -535 -16 -139 -22 -414 -11 -495 3 -19 8 -64 11
-98 33 -355 186 -794 401 -1156 55 -92 171 -267 205 -310 63 -80 167 -214 173
-224 5 -9 -23 -44 -87 -110 -142 -145 -197 -212 -311 -381 -283 -419 -406
-952 -282 -1215 119 -252 444 -436 916 -520 81 -14 109 -18 245 -32 77 -8 379
-7 470 1 393 34 735 142 942 298 124 92 198 188 240 308 21 62 26 91 25 183
l0 108 47 -6 c169 -22 465 -29 623 -13 216 21 502 92 698 173 102 42 312 154
399 212 253 170 369 305 420 492 145 531 -175 1367 -858 2240 -58 74 -110 140
-116 146 -6 6 -31 35 -56 64 -24 29 -49 58 -55 64 -8 7 1 27 32 68 58 79 85
156 89 247 3 92 -7 138 -46 219 -42 86 -115 157 -208 201 -65 30 -86 35 -161
38 -49 1 -108 -4 -137 -11 -58 -16 -150 -65 -178 -96 -10 -11 -22 -20 -28 -20
-5 0 -39 26 -76 58 -397 348 -896 672 -1326 860 -382 166 -765 240 -1029 196z"/>
<path d="M4190 6084 c-91 -27 -147 -123 -129 -221 19 -102 87 -148 229 -157
52 -4 106 -8 120 -11 58 -11 76 -15 129 -30 364 -103 633 -378 730 -748 24
-92 31 -133 36 -237 7 -109 36 -163 109 -199 109 -54 227 -7 266 108 20 61 15
200 -15 352 -40 205 -181 500 -306 639 -17 19 -36 42 -43 50 -12 16 -126 122
-167 156 -93 76 -281 180 -404 222 -149 52 -288 79 -430 86 -48 2 -98 -2 -125
-10z"/>
</g>
</svg>
